{
    "asset" : {
        "generator" : "Khronos glTF Blender I/O v1.6.16",
        "version" : "2.0"
    },
    "scene" : 0,
    "scenes" : [
        {
            "name" : "Scene",
            "nodes" : [
                0,
                1
            ]
        }
    ],
    "nodes" : [
        {
            "name" : "Point",
            "translation" : [
                -4.805352210998535,
                4.510628700256348,
                3.644972562789917
            ]
        },
        {
            "mesh" : 0,
            "name" : "Curve.001",
            "rotation" : [
                0.7071068286895752,
                0,
                0,
                0.7071068286895752
            ],
            "scale" : [
                13.763891220092773,
                13.763891220092773,
                13.763891220092773
            ],
            "translation" : [
                -0.0067708492279052734,
                1.2451145648956299,
                0.10298451036214828
            ]
        }
    ],
    "materials" : [
        {
            "doubleSided" : true,
            "name" : "SVGMat.001",
            "pbrMetallicRoughness" : {
                "baseColorFactor" : [
                    0.045257795602083206,
                    0.27784788608551025,
                    0.40197327733039856,
                    1
                ],
                "metallicFactor" : 0,
                "roughnessFactor" : 0.4000000059604645
            }
        }
    ],
    "meshes" : [
        {
            "name" : "Curve.001",
            "primitives" : [
                {
                    "attributes" : {
                        "POSITION" : 0,
                        "NORMAL" : 1,
                        "TEXCOORD_0" : 2,
                        "COLOR_0" : 3
                    },
                    "indices" : 4,
                    "material" : 0
                }
            ]
        }
    ],
    "accessors" : [
        {
            "bufferView" : 0,
            "componentType" : 5126,
            "count" : 35969,
            "max" : [
                0.060653746128082275,
                0.012000000104308128,
                0.05984750762581825
            ],
            "min" : [
                -0.05906808376312256,
                -0.012000000104308128,
                -0.059814438223838806
            ],
            "type" : "VEC3"
        },
        {
            "bufferView" : 1,
            "componentType" : 5126,
            "count" : 35969,
            "type" : "VEC3"
        },
        {
            "bufferView" : 2,
            "componentType" : 5126,
            "count" : 35969,
            "type" : "VEC2"
        },
        {
            "bufferView" : 3,
            "componentType" : 5123,
            "count" : 35969,
            "normalized" : true,
            "type" : "VEC4"
        },
        {
            "bufferView" : 4,
            "componentType" : 5123,
            "count" : 156696,
            "type" : "SCALAR"
        }
    ],
    "bufferViews" : [
        {
            "buffer" : 0,
            "byteLength" : 431628,
            "byteOffset" : 0
        },
        {
            "buffer" : 0,
            "byteLength" : 431628,
            "byteOffset" : 431628
        },
        {
            "buffer" : 0,
            "byteLength" : 287752,
            "byteOffset" : 863256
        },
        {
            "buffer" : 0,
            "byteLength" : 287752,
            "byteOffset" : 1151008
        },
        {
            "buffer" : 0,
            "byteLength" : 313392,
            "byteOffset" : 1438760
        }
    ],
    "buffers" : [
        {
            "byteLength" : 1752152,
            "uri" : "data:application/octet-stream;base64,"
        }
    ]
}
