{
    "asset" : {
        "generator" : "Khronos glTF Blender I/O v1.6.16",
        "version" : "2.0"
    },
    "scene" : 0,
    "scenes" : [
        {
            "name" : "Scene",
            "nodes" : [
                0,
                1
            ]
        }
    ],
    "nodes" : [
        {
            "mesh" : 0,
            "name" : "Dome",
            "scale" : [
                4.125338554382324,
                4.125338554382324,
                4.125338554382324
            ],
            "translation" : [
                0.02483021467924118,
                0.7298398017883301,
                0.02341369539499283
            ]
        },
        {
            "name" : "Point",
            "translation" : [
                -4.805352210998535,
                4.510628700256348,
                3.644972562789917
            ]
        }
    ],
    "materials" : [
        {
            "doubleSided" : true,
            "name" : "Material.001",
            "pbrMetallicRoughness" : {
                "baseColorFactor" : [
                    0.800000011920929,
                    0.800000011920929,
                    0.800000011920929,
                    1
                ],
                "metallicFactor" : 0,
                "roughnessFactor" : 0.5
            }
        }
    ],
    "meshes" : [
        {
            "name" : "Sphere.001",
            "primitives" : [
                {
                    "attributes" : {
                        "POSITION" : 0,
                        "NORMAL" : 1,
                        "TEXCOORD_0" : 2
                    },
                    "indices" : 3,
                    "material" : 0
                }
            ]
        }
    ],
    "accessors" : [
        {
            "bufferView" : 0,
            "componentType" : 5126,
            "count" : 15616,
            "max" : [
                1.0189766883850098,
                0.9989670515060425,
                1.0139787197113037
            ],
            "min" : [
                -1.0139786005020142,
                -0.09940708428621292,
                -1.0139788389205933
            ],
            "type" : "VEC3"
        },
        {
            "bufferView" : 1,
            "componentType" : 5126,
            "count" : 15616,
            "type" : "VEC3"
        },
        {
            "bufferView" : 2,
            "componentType" : 5126,
            "count" : 15616,
            "type" : "VEC2"
        },
        {
            "bufferView" : 3,
            "componentType" : 5123,
            "count" : 23424,
            "type" : "SCALAR"
        }
    ],
    "bufferViews" : [
        {
            "buffer" : 0,
            "byteLength" : 187392,
            "byteOffset" : 0
        },
        {
            "buffer" : 0,
            "byteLength" : 187392,
            "byteOffset" : 187392
        },
        {
            "buffer" : 0,
            "byteLength" : 124928,
            "byteOffset" : 374784
        },
        {
            "buffer" : 0,
            "byteLength" : 46848,
            "byteOffset" : 499712
        }
    ],
    "buffers" : [
        {
            "byteLength" : 546560,
            "uri" : "data:application/octet-stream;base64,"
        }
    ]
}
